# xmcd
#
# Track frame offsets:
#	150
#	14945
#	35224
#	54716
#	76958
#	93397
#	113892
#	134342
#	157406
#	179667
#	196009
#
# Disc length: 2804 seconds
#
# Revision: 1
# Processed by: cddbd v1.5.2PL0 Copyright (c) Steve Scherf et al.
# Submitted via: audiograbber 1.83.01
#
DISCID=a20af20b
DTITLE=Nicke Lurig - Project Väddö
DYEAR=2012
DGENRE=Pop
TTITLE0=Detta året
TTITLE1=Liten pojke
TTITLE2=Dra ditt vapen
TTITLE3=Lycklig och fri
TTITLE4=Kråkor kraxar
TTITLE5=Mimmi
TTITLE6=Tillsynsmannen
TTITLE7=Tankens svala
TTITLE8=Lurken
TTITLE9=Systers sång
TTITLE10=Valsmelodi
EXTD=
EXTT0=
EXTT1=
EXTT2=
EXTT3=
EXTT4=
EXTT5=
EXTT6=
EXTT7=
EXTT8=
EXTT9=
EXTT10=
PLAYORDER=
